<svg width="40" height="40" viewBox="0 0 40 40" fill="none" xmlns="http://www.w3.org/2000/svg">
<rect width="40" height="40" rx="20" fill="#FF6600"/>
<path d="M25.8749 14.092C25.1108 13.3205 24.2008 12.7087 23.1978 12.2923C22.1949 11.876 21.1192 11.6634 20.0333 11.667C15.4833 11.667 11.7749 15.3754 11.7749 19.9254C11.7749 21.3837 12.1583 22.8004 12.8749 24.0504L11.7083 28.3337L16.0833 27.1837C17.2916 27.842 18.6499 28.192 20.0333 28.192C24.5833 28.192 28.2916 24.4837 28.2916 19.9337C28.2916 17.7254 27.4333 15.6504 25.8749 14.092ZM20.0333 26.792C18.7999 26.792 17.5916 26.4587 16.5333 25.8337L16.2833 25.6837L13.6833 26.367L14.3749 23.8337L14.2083 23.5754C13.5229 22.4813 13.159 21.2164 13.1583 19.9254C13.1583 16.142 16.2416 13.0587 20.0249 13.0587C21.8583 13.0587 23.5833 13.7754 24.8749 15.0754C25.5146 15.7119 26.0215 16.4692 26.3663 17.3031C26.711 18.1371 26.8868 19.0313 26.8833 19.9337C26.8999 23.717 23.8166 26.792 20.0333 26.792ZM23.7999 21.6587C23.5916 21.5587 22.5749 21.0587 22.3916 20.9837C22.1999 20.917 22.0666 20.8837 21.9249 21.0837C21.7833 21.292 21.3916 21.7587 21.2749 21.892C21.1583 22.0337 21.0333 22.0504 20.8249 21.942C20.6166 21.842 19.9499 21.617 19.1666 20.917C18.5499 20.367 18.1416 19.692 18.0166 19.4837C17.8999 19.2754 17.9999 19.167 18.1083 19.0587C18.1999 18.967 18.3166 18.817 18.4166 18.7004C18.5166 18.5837 18.5583 18.492 18.6249 18.3587C18.6916 18.217 18.6583 18.1004 18.6083 18.0004C18.5583 17.9004 18.1416 16.8837 17.9749 16.467C17.8083 16.067 17.6333 16.117 17.5083 16.1087H17.1083C16.9666 16.1087 16.7499 16.1587 16.5583 16.367C16.3749 16.5754 15.8416 17.0754 15.8416 18.092C15.8416 19.1087 16.5833 20.092 16.6833 20.2254C16.7833 20.367 18.1416 22.4504 20.2083 23.342C20.6999 23.5587 21.0833 23.6837 21.3833 23.7754C21.8749 23.9337 22.3249 23.9087 22.6833 23.8587C23.0833 23.8004 23.9083 23.3587 24.0749 22.8754C24.2499 22.392 24.2499 21.9837 24.1916 21.892C24.1333 21.8004 24.0083 21.7587 23.7999 21.6587Z" fill="white"/>
</svg>
