<svg width="40" height="40" viewBox="0 0 40 40" fill="none" xmlns="http://www.w3.org/2000/svg">
<rect width="40" height="40" rx="20" fill="#FF6600"/>
<path d="M24.166 11.666H15.8327C13.5315 11.666 11.666 13.5315 11.666 15.8327V24.166C11.666 26.4672 13.5315 28.3327 15.8327 28.3327H24.166C26.4672 28.3327 28.3327 26.4672 28.3327 24.166V15.8327C28.3327 13.5315 26.4672 11.666 24.166 11.666Z" stroke="white" strokeWidth="1.66667" strokeLinecap="round" strokeLinejoin="round"/>
<path d="M23.3337 19.4753C23.4366 20.1688 23.3181 20.8771 22.9952 21.4994C22.6723 22.1218 22.1614 22.6264 21.5351 22.9416C20.9088 23.2569 20.1991 23.3666 19.5069 23.2552C18.8147 23.1438 18.1752 22.817 17.6794 22.3212C17.1837 21.8255 16.8569 21.186 16.7455 20.4938C16.6341 19.8015 16.7438 19.0918 17.059 18.4656C17.3742 17.8393 17.8789 17.3284 18.5012 17.0055C19.1236 16.6825 19.8319 16.5641 20.5254 16.6669C21.2328 16.7718 21.8878 17.1015 22.3935 17.6072C22.8992 18.1129 23.2288 18.7678 23.3337 19.4753Z" stroke="white" strokeWidth="1.66667" strokeLinecap="round" strokeLinejoin="round"/>
<path d="M24.584 15.416H24.5923" stroke="white" strokeWidth="1.66667" strokeLinecap="round" strokeLinejoin="round"/>
</svg>
